<?xml version="1.0" standalone="no"?>
<!DOCTYPE svg PUBLIC "-//W3C//DTD SVG 20010904//EN"
 "http://www.w3.org/TR/2001/REC-SVG-20010904/DTD/svg10.dtd">
<svg version="1.0" xmlns="http://www.w3.org/2000/svg"
 width="295.000000pt" height="295.000000pt" viewBox="0 0 295.000000 295.000000"
 preserveAspectRatio="xMidYMid meet">
<metadata>
Created by potrace 1.11, written by Peter Selinger 2001-2013
</metadata>
<g transform="translate(0.000000,295.000000) scale(0.100000,-0.100000)"
fill="#000000" stroke="none">
<path d="M1350 2124 c0 -5 7 -18 15 -28 8 -11 15 -16 15 -10 0 5 -7 18 -15 28
-8 11 -15 16 -15 10z"/>
<path d="M1342 2060 c0 -14 2 -19 5 -12 2 6 2 18 0 25 -3 6 -5 1 -5 -13z"/>
<path d="M1406 1915 c-11 -8 -15 -15 -10 -15 6 0 19 7 30 15 10 8 15 14 9 14
-5 0 -19 -6 -29 -14z"/>
<path d="M1462 1908 c-15 -10 -22 -18 -15 -18 6 0 14 4 17 8 7 12 165 -4 233
-23 119 -34 200 -104 227 -196 26 -87 17 -174 -31 -289 -26 -63 -107 -200
-118 -200 -3 0 -2 8 3 18 28 53 44 93 40 98 -3 3 -13 -14 -22 -37 -45 -112
-141 -219 -240 -269 -87 -42 -141 -48 -197 -20 -60 31 -109 70 -109 86 0 8 -6
14 -14 14 -8 0 -42 36 -75 80 -149 197 -214 378 -181 500 25 91 111 165 238
203 73 21 99 44 40 34 -57 -9 -147 -47 -191 -81 -23 -17 -55 -54 -72 -81 -28
-46 -30 -54 -30 -156 l0 -107 48 -94 c134 -266 293 -425 427 -428 25 -1 69 2
98 6 l52 7 0 -30 c0 -17 -7 -36 -16 -44 -14 -12 -14 -14 5 -21 31 -11 28 -52
-4 -66 -57 -26 -95 -4 -95 56 0 30 -2 33 -12 20 -7 -8 -27 -18 -45 -21 -55
-10 -123 -48 -150 -83 -23 -31 -32 -83 -21 -120 2 -6 -12 -23 -30 -39 -37 -31
-75 -98 -70 -123 2 -10 11 3 21 31 10 26 24 47 31 47 18 0 59 -59 52 -76 -9
-22 2 -17 34 19 l30 32 21 -25 c29 -35 13 -6 -33 61 -62 88 -66 153 -12 201
23 20 97 53 142 61 31 6 39 -2 33 -36 -1 -4 15 -15 36 -23 33 -14 40 -14 70 0
27 13 33 21 33 47 l0 32 62 -7 c104 -12 188 -68 188 -125 0 -16 -5 -42 -11
-58 l-10 -28 -17 28 c-32 52 -120 77 -262 75 l-95 -1 115 -8 c134 -8 178 -19
214 -55 35 -36 33 -54 -14 -126 -22 -34 -40 -66 -40 -70 0 -20 18 -5 39 32 12
22 28 40 35 40 17 0 66 -49 66 -66 0 -16 19 -18 54 -4 16 6 27 6 31 0 4 -6 15
-10 27 -10 17 0 19 4 13 28 -12 51 -50 106 -92 137 -34 24 -42 36 -42 60 2 56
-1 64 -32 99 -32 37 -82 56 -184 73 l-50 8 -5 53 -6 54 41 28 c54 37 149 140
193 209 89 140 129 270 119 391 -15 180 -140 278 -379 299 -67 6 -83 4 -106
-11z m-174 -1322 c17 -29 18 -37 7 -46 -11 -9 -22 -6 -50 15 -30 24 -33 30
-23 44 30 38 37 36 66 -13z m595 31 l25 -13 -23 -26 c-21 -24 -24 -25 -44 -12
-20 15 -20 16 -4 39 21 29 16 28 46 12z m67 -94 c0 -7 -4 -13 -9 -13 -5 0 -16
-3 -24 -6 -10 -3 -20 3 -27 16 -9 17 -8 26 5 47 l17 25 19 -28 c10 -16 19 -35
19 -41z"/>
<path d="M1467 1870 c-11 -10 -35 -23 -55 -28 -27 -7 -31 -10 -14 -11 32 -1
92 28 92 45 0 17 -1 17 -23 -6z"/>
<path d="M1558 1793 c7 -3 16 -2 19 1 4 3 -2 6 -13 5 -11 0 -14 -3 -6 -6z"/>
<path d="M1658 1773 c7 -3 16 -2 19 1 4 3 -2 6 -13 5 -11 0 -14 -3 -6 -6z"/>
<path d="M1570 1750 c0 -5 5 -10 11 -10 5 0 7 5 4 10 -3 6 -8 10 -11 10 -2 0
-4 -4 -4 -10z"/>
<path d="M1260 1740 c0 -5 5 -10 10 -10 6 0 10 5 10 10 0 6 -4 10 -10 10 -5 0
-10 -4 -10 -10z"/>
<path d="M1750 1747 c0 -3 17 -17 38 -33 30 -23 33 -24 17 -5 -19 22 -55 46
-55 38z"/>
<path d="M1125 1721 c-3 -5 -1 -12 5 -16 5 -3 10 1 10 9 0 18 -6 21 -15 7z"/>
<path d="M1830 1675 c0 -5 5 -17 10 -25 5 -8 10 -10 10 -5 0 6 -5 17 -10 25
-5 8 -10 11 -10 5z"/>
<path d="M1810 1630 c0 -5 5 -10 10 -10 6 0 10 5 10 10 0 6 -4 10 -10 10 -5 0
-10 -4 -10 -10z"/>
<path d="M1458 1601 c-34 -27 -42 -62 -24 -106 33 -78 156 -47 156 40 0 63
-82 105 -132 66z m67 -51 c3 -5 1 -10 -4 -10 -6 0 -11 5 -11 10 0 6 2 10 4 10
3 0 8 -4 11 -10z"/>
<path d="M1162 1594 c-40 -45 -26 -128 22 -140 88 -22 153 70 91 131 -28 29
-92 34 -113 9z m65 -56 c-3 -8 -6 -5 -6 6 -1 11 2 17 5 13 3 -3 4 -12 1 -19z"/>
<path d="M1859 1498 c0 -18 -8 -64 -19 -103 -21 -83 -18 -100 5 -23 18 60 31
158 21 158 -3 0 -6 -15 -7 -32z"/>
<path d="M1820 1464 c0 -8 5 -12 10 -9 6 3 10 10 10 16 0 5 -4 9 -10 9 -5 0
-10 -7 -10 -16z"/>
<path d="M1622 1323 c6 -16 14 -45 18 -66 7 -34 5 -40 -16 -49 -20 -9 -27 -6
-53 22 l-30 33 -58 -24 c-44 -18 -77 -24 -136 -24 l-77 0 -6 -33 c-4 -18 -9
-34 -13 -37 -6 -3 -41 88 -41 107 0 3 42 8 93 11 98 7 137 15 230 49 92 33 61
30 -43 -4 -82 -27 -110 -31 -206 -32 l-110 -1 19 -66 c19 -67 20 -67 69 -83
101 -32 250 -13 353 47 35 20 40 27 39 58 -2 46 -23 119 -34 119 -6 0 -5 -12
2 -27z m-52 -108 l23 -25 -38 -16 c-53 -22 -172 -46 -220 -45 -64 2 -74 8 -66
39 7 26 10 27 97 34 49 3 105 13 124 22 47 21 53 20 80 -9z m-123 -91 c-3 -3
-12 -4 -19 -1 -8 3 -5 6 6 6 11 1 17 -2 13 -5z"/>
<path d="M1770 1310 c0 -5 5 -10 10 -10 6 0 10 5 10 10 0 6 -4 10 -10 10 -5 0
-10 -4 -10 -10z"/>
<path d="M1710 1164 c0 -8 5 -12 10 -9 6 3 10 10 10 16 0 5 -4 9 -10 9 -5 0
-10 -7 -10 -16z"/>
<path d="M1600 1064 c0 -8 5 -12 10 -9 6 4 8 11 5 16 -9 14 -15 11 -15 -7z"/>
<path d="M1415 1001 c-3 -5 -1 -12 5 -16 5 -3 10 1 10 9 0 18 -6 21 -15 7z"/>
</g>
</svg>
